<?xml version="1.0" encoding="UTF-8" standalone="no"?>
<svg
   xmlns:dc="http://purl.org/dc/elements/1.1/"
   xmlns:cc="http://creativecommons.org/ns#"
   xmlns:rdf="http://www.w3.org/1999/02/22-rdf-syntax-ns#"
   xmlns:svg="http://www.w3.org/2000/svg"
   xmlns="http://www.w3.org/2000/svg"
   xmlns:sodipodi="http://sodipodi.sourceforge.net/DTD/sodipodi-0.dtd"
   xmlns:inkscape="http://www.inkscape.org/namespaces/inkscape"
   width="961"
   height="673"
   id="svg2"
   version="1.1"
   inkscape:version="0.91 r13725"
   sodipodi:docname="legos2.svg">
  <defs
     id="defs207" />
  <sodipodi:namedview
     pagecolor="#ffffff"
     bordercolor="#666666"
     borderopacity="1"
     objecttolerance="10"
     gridtolerance="10"
     guidetolerance="10"
     inkscape:pageopacity="0"
     inkscape:pageshadow="2"
     inkscape:window-width="1863"
     inkscape:window-height="1056"
     id="namedview205"
     showgrid="false"
     inkscape:zoom="0.87413408"
     inkscape:cx="558.67953"
     inkscape:cy="394.04657"
     inkscape:window-x="57"
     inkscape:window-y="24"
     inkscape:window-maximized="1"
     inkscape:current-layer="layer1" />
  <title
     id="title4">Lego Stacks rearranged</title>
  <metadata
     id="metadata2835">image/svg+xmlLegoBlocks brunurb2007-11-14brunurbThis work is hereby released into the Public Domain. To view a copy of the public domain dedication, visit http://creativecommons.org/licenses/publicdomain/ or send a letter to Creative Commons, 171 Second Street, Suite 300, San Francisco, California, 94105, USA.openclipart.orgopenclipart.orglegoblockbrickplasticplaygametoykidchildrenpuzzlebuildLego type construction bricks<rdf:RDF>
  <cc:Work
     rdf:about="">
    <dc:format>image/svg+xml</dc:format>
    <dc:type
       rdf:resource="http://purl.org/dc/dcmitype/StillImage" />
    <dc:title>Lego Stacks rearranged</dc:title>
  </cc:Work>
</rdf:RDF>
</metadata>
  <g
     id="g7">
    <title
       id="title9">Layer 1</title>
    <g
       id="layer1">
      <g
         fill="#f5fa40"
         transform="matrix(5.7244485,0,0,5.7244485,-582.68175,-2300.9683)"
         id="g2860">
        <path
           id="path2862" />
      </g>
      <g
         fill="#f5fa40"
         transform="matrix(5.7244485,0,0,5.7244485,-582.68175,-2300.9683)"
         id="g2872">
        <path
           id="path2874" />
      </g>
      <g
         fill="#f5fa40"
         transform="matrix(5.7244485,0,0,5.7244485,-582.68175,-2300.9683)"
         id="g2884">
        <path
           id="path2886" />
      </g>
      <g
         fill="#f5fa40"
         transform="matrix(5.7244485,0,0,5.7244485,-582.68175,-2300.9683)"
         id="g2896">
        <path
           id="path2898" />
      </g>
      <g
         fill="#f5fa40"
         transform="matrix(5.7244485,0,0,5.7244485,-582.68175,-2300.9683)"
         id="g2908">
        <path
           id="path2910" />
      </g>
      <g
         fill="#f5fa40"
         transform="matrix(5.7244485,0,0,5.7244485,-582.68175,-2300.9683)"
         id="g2920">
        <path
           id="path2922" />
      </g>
      <g
         fill="#f5fa40"
         transform="matrix(5.7244485,0,0,5.7244485,-582.68175,-2300.9683)"
         id="g2932">
        <path
           id="path2934" />
      </g>
      <g
         fill="#f5fa40"
         transform="matrix(5.7244485,0,0,5.7244485,-582.68175,-2300.9683)"
         id="g2944">
        <path
           id="path2946" />
      </g>
      <g
         fill="#ff212c"
         transform="matrix(5.7244485,0,0,5.7244485,-582.68175,-2300.9683)"
         id="g2968">
        <path
           id="path2970" />
      </g>
      <g
         fill="#ff212c"
         transform="matrix(5.7244485,0,0,5.7244485,-582.68175,-2300.9683)"
         id="g2980">
        <path
           id="path2982" />
      </g>
      <g
         fill="#ff212c"
         transform="matrix(5.7244485,0,0,5.7244485,-582.68175,-2300.9683)"
         id="g2992">
        <path
           id="path2994" />
      </g>
      <g
         fill="#ff212c"
         transform="matrix(5.7244485,0,0,5.7244485,-582.68175,-2300.9683)"
         id="g3004">
        <path
           id="path3006" />
      </g>
      <g
         fill="#ff212c"
         transform="matrix(5.7244485,0,0,5.7244485,-582.68175,-2300.9683)"
         id="g3016">
        <path
           id="path3018" />
      </g>
      <g
         fill="#ff212c"
         transform="matrix(5.7244485,0,0,5.7244485,-582.68175,-2300.9683)"
         id="g3028">
        <path
           id="path3030" />
      </g>
      <g
         fill="#ff212c"
         transform="matrix(5.7244485,0,0,5.7244485,-582.68175,-2300.9683)"
         id="g3040">
        <path
           id="path3042" />
      </g>
      <g
         fill="#ff212c"
         transform="matrix(5.7244485,0,0,5.7244485,-582.68175,-2300.9683)"
         id="g3052">
        <path
           id="path3054" />
      </g>
      <g
         fill="#2da6ff"
         transform="matrix(5.7244485,0,0,5.7244485,-582.68175,-2300.9683)"
         id="g3076">
        <path
           id="path3078" />
      </g>
      <g
         fill="#2da6ff"
         transform="matrix(5.7244485,0,0,5.7244485,-582.68175,-2300.9683)"
         id="g3088">
        <path
           id="path3090" />
      </g>
      <g
         fill="#2da6ff"
         transform="matrix(5.7244485,0,0,5.7244485,-582.68175,-2300.9683)"
         id="g3100">
        <path
           id="path3102" />
      </g>
      <g
         fill="#2da6ff"
         transform="matrix(5.7244485,0,0,5.7244485,-582.68175,-2300.9683)"
         id="g3112">
        <path
           id="path3114" />
      </g>
      <g
         fill="#2da6ff"
         transform="matrix(5.7244485,0,0,5.7244485,-582.68175,-2300.9683)"
         id="g3124">
        <path
           id="path3126" />
      </g>
      <g
         fill="#2da6ff"
         transform="matrix(5.7244485,0,0,5.7244485,-582.68175,-2300.9683)"
         id="g3136">
        <path
           id="path3138" />
      </g>
      <g
         fill="#2da6ff"
         transform="matrix(5.7244485,0,0,5.7244485,-582.68175,-2300.9683)"
         id="g3148">
        <path
           id="path3150" />
      </g>
      <g
         fill="#2da6ff"
         transform="matrix(5.7244485,0,0,5.7244485,-582.68175,-2300.9683)"
         id="g3160">
        <path
           id="path3162" />
      </g>
      <g
         fill="#2da6ff"
         transform="matrix(5.7244485,0,0,5.7244485,-582.68175,-2300.9683)"
         id="g3184">
        <path
           id="path3186" />
      </g>
      <g
         fill="#2da6ff"
         transform="matrix(5.7244485,0,0,5.7244485,-582.68175,-2300.9683)"
         id="g3196">
        <path
           id="path3198" />
      </g>
      <g
         fill="#2da6ff"
         transform="matrix(5.7244485,0,0,5.7244485,-582.68175,-2300.9683)"
         id="g3208">
        <path
           id="path3210" />
      </g>
      <g
         fill="#2da6ff"
         transform="matrix(5.72445, 0, 0, 5.72445, -582.682, -2300.97)"
         id="g3220">
        <path
           id="path3222" />
      </g>
      <g
         id="g4539"
         transform="matrix(-1,0,0,1,858.07671,13.79127)">
        <path
           d="m 115.97574,451.26067 0,128.81148 144.14734,58.26922 0,-128.81159 -144.14734,-58.26911 z"
           id="path2842"
           inkscape:connector-curvature="0"
           style="fill:#fcd327" />
        <path
           d="m 616.6418,525.82065 0,-119.80695 -357.28583,104.28219 0,128.81152 357.28583,-113.28676 z"
           id="path2846"
           inkscape:connector-curvature="0"
           style="fill:#f5fa40" />
        <path
           d="M 115.97574,452.79488 470.96024,344.67705 615.87465,406.01469 260.12308,511.83106 115.97574,452.79488 Z"
           id="path2850"
           inkscape:connector-curvature="0"
           style="fill:#e4ea06;fill-opacity:1" />
        <path
           d="m 232.51979,460.45408 0,26.06925 c 13.80159,12.27311 61.33174,11.50603 72.83788,-1.52843 l 0,-26.84193 -72.83788,2.30111 z"
           id="path2854"
           inkscape:connector-curvature="0"
           style="fill:#e9b018" />
        <path
           d="m 232.51979,458.54223 c 0,-4.86584 16.30323,-8.81571 36.41894,-8.81571 20.10999,0 36.41894,3.94987 36.41894,8.81571 0,4.87139 -16.30895,8.81553 -36.41894,8.81553 -20.11566,0 -36.41894,-3.94414 -36.41894,-8.81553 z"
           id="path2858"
           inkscape:connector-curvature="0"
           style="fill:#f5fa40" />
        <path
           d="m 323.37251,434.0014 0,26.07498 c 13.80159,12.26738 61.33174,11.50047 72.83222,-1.53415 l 0,-26.83633 -72.83222,2.2955 z"
           id="path2866"
           inkscape:connector-curvature="0"
           style="fill:#e9b018" />
        <path
           d="m 323.37251,432.09528 c 0,-4.87157 16.30329,-8.81571 36.41327,-8.81571 20.11566,0 36.41895,3.94414 36.41895,8.81571 0,4.86566 -16.30329,8.81553 -36.41895,8.81553 -20.10998,0 -36.41327,-3.94987 -36.41327,-8.81553 z"
           id="path2870"
           inkscape:connector-curvature="0"
           style="fill:#f5fa40" />
        <path
           d="m 411.92395,407.55445 0,26.06925 c 13.8017,12.26732 61.33179,11.50042 72.83221,-1.53421 l 0,-26.83627 -72.83221,2.30123 z"
           id="path2878"
           inkscape:connector-curvature="0"
           style="fill:#e9b018" />
        <path
           d="m 411.92395,405.6426 c 0,-4.87156 16.30328,-8.81571 36.41894,-8.81571 20.10999,0 36.41327,3.94415 36.41327,8.81571 0,4.87139 -16.30328,8.81554 -36.41327,8.81554 -20.11566,0 -36.41894,-3.94415 -36.41894,-8.81554 z"
           id="path2882"
           inkscape:connector-curvature="0"
           style="fill:#f5fa40" />
        <path
           d="m 497.41292,381.86885 0,26.06925 c 13.80164,12.26732 61.3318,11.50042 72.83221,-1.53421 l 0,-26.83627 -72.83221,2.30123 z"
           id="path2890"
           inkscape:connector-curvature="0"
           style="fill:#e9b018" />
        <path
           d="m 497.41292,379.957 c 0,-4.86584 16.30328,-8.81571 36.41327,-8.81571 20.11566,0 36.41894,3.94987 36.41894,8.81571 0,4.87139 -16.30328,8.81554 -36.41894,8.81554 -20.10999,0 -36.41327,-3.94415 -36.41327,-8.81554 z"
           id="path2894"
           inkscape:connector-curvature="0"
           style="fill:#f5fa40" />
        <path
           d="m 426.49845,350.81956 0,26.06908 c 13.79592,12.27327 61.32602,11.5062 72.83221,-1.52843 l 0,-26.83616 -72.83221,2.29551 z"
           id="path2902"
           inkscape:connector-curvature="0"
           style="fill:#e9b018" />
        <path
           d="m 426.49845,348.91331 c 0,-4.87162 16.30329,-8.8157 36.41327,-8.8157 20.11566,0 36.41894,3.94408 36.41894,8.8157 0,4.86579 -16.30328,8.81566 -36.41894,8.81566 -20.10998,0 -36.41327,-3.94987 -36.41327,-8.81566 z"
           id="path2906"
           inkscape:connector-curvature="0"
           style="fill:#f5fa40" />
        <path
           d="m 337.18555,376.51077 0,26.06925 c 13.79597,12.2731 61.3318,11.50597 72.83221,-1.52843 l 0,-26.84194 -72.83221,2.30112 z"
           id="path2914"
           inkscape:connector-curvature="0"
           style="fill:#e9b018" />
        <path
           d="m 337.18555,374.59892 c 0,-4.86584 16.30328,-8.81571 36.41327,-8.81571 20.11566,0 36.41894,3.94987 36.41894,8.81571 0,4.87139 -16.30328,8.81565 -36.41894,8.81565 -20.10999,0 -36.41327,-3.94426 -36.41327,-8.81565 z"
           id="path2918"
           inkscape:connector-curvature="0"
           style="fill:#f5fa40" />
        <path
           d="m 247.87276,402.20215 0,26.06919 c 13.80164,12.26738 61.33168,11.50603 72.83216,-1.53415 l 0,-26.83633 -72.83216,2.30129 z"
           id="path2926"
           inkscape:connector-curvature="0"
           style="fill:#e9b018" />
        <path
           d="m 247.87276,400.29024 c 0,-4.86578 16.30323,-8.81571 36.41322,-8.81571 20.11571,0 36.41894,3.94987 36.41894,8.81571 0,4.87139 -16.30323,8.81554 -36.41894,8.81554 -20.10999,0 -36.41322,-3.94409 -36.41322,-8.81554 z"
           id="path2930"
           inkscape:connector-curvature="0"
           style="fill:#f5fa40" />
        <path
           d="m 158.55991,427.89347 0,26.06908 c 13.80159,12.2675 61.33174,11.50042 72.83222,-1.53403 l 0,-26.83628 -72.83222,2.30123 z"
           id="path2938"
           inkscape:connector-curvature="0"
           style="fill:#e9b018" />
        <path
           d="m 158.55991,425.98145 c 0,-4.86567 16.30329,-8.81554 36.41328,-8.81554 20.11565,0 36.41894,3.94987 36.41894,8.81554 0,4.87156 -16.30329,8.81571 -36.41894,8.81571 -20.10999,0 -36.41328,-3.94415 -36.41328,-8.81571 z"
           id="path2942"
           inkscape:connector-curvature="0"
           style="fill:#f5fa40" />
      </g>
      <g
         id="g4518"
         transform="matrix(-1,0,0,1,25.828498,308.65251)">
        <path
           d="m -714.9091,28.867482 0,128.805698 144.14728,58.26922 0,-128.805814 -144.14728,-58.269104 z"
           id="path3058"
           inkscape:connector-curvature="0"
           style="fill:#002ec4" />
        <path
           d="m -214.24296,103.42739 0,-119.807127 -357.28583,104.282362 0,128.805905 357.28583,-113.28114 z"
           id="path3062"
           inkscape:connector-curvature="0"
           style="fill:#2da6ff" />
        <path
           d="M -714.9091,30.39591 -359.9246,-77.716139 -215.01019,-16.378673 -570.76182,89.43209 -714.9091,30.39591 Z"
           id="path3066"
           inkscape:connector-curvature="0"
           style="fill:#008af0;fill-opacity:1" />
        <path
           d="m -598.36506,38.060889 0,26.069196 c 13.80165,12.267378 61.3318,11.500302 72.8321,-1.534152 l 0,-26.836329 -72.8321,2.301285 z"
           id="path3070"
           inkscape:connector-curvature="0"
           style="fill:#002ec4" />
        <path
           d="m -598.36506,36.148981 c 0,-4.865782 16.30318,-8.815651 36.41895,-8.815651 20.10998,0 36.41315,3.949869 36.41315,8.815651 0,4.871448 -16.30317,8.815536 -36.41315,8.815536 -20.11577,0 -36.41895,-3.944088 -36.41895,-8.815536 z"
           id="path3074"
           inkscape:connector-curvature="0"
           style="fill:#2da6ff" />
        <path
           d="m -507.51233,11.608213 0,26.069195 c 13.79597,12.273103 61.32601,11.506027 72.83215,-1.528427 l 0,-26.8362723 -72.83215,2.2955043 z"
           id="path3082"
           inkscape:connector-curvature="0"
           style="fill:#002ec4" />
        <path
           d="m -507.51233,9.696304 c 0,-4.8657812 16.30323,-8.81570792 36.41321,-8.81570792 20.11571,0 36.41894,3.94986942 36.41894,8.81570792 0,4.871391 -16.30323,8.821318 -36.41894,8.821318 -20.10998,0 -36.41321,-3.949927 -36.41321,-8.821318 z"
           id="path3086"
           inkscape:connector-curvature="0"
           style="fill:#2da6ff" />
        <path
           d="m -418.96084,-14.844521 0,26.074863 c 13.80159,12.267493 61.33174,11.500417 72.83216,-1.534038 l 0,-26.836329 -72.83216,2.295561 z"
           id="path3094"
           inkscape:connector-curvature="0"
           style="fill:#002ec4" />
        <path
           d="m -418.96084,-16.750763 c 0,-4.871448 16.30323,-8.815536 36.41327,-8.815536 20.11566,0 36.41895,3.944088 36.41895,8.815536 0,4.865782 -16.30329,8.8157084 -36.41895,8.8157084 -20.10998,0 -36.41327,-3.9499264 -36.41327,-8.8157084 z"
           id="path3098"
           inkscape:connector-curvature="0"
           style="fill:#2da6ff" />
        <path
           d="m -333.47193,-40.52434 0,26.069081 c 13.79598,12.2674934 61.32602,11.5004173 72.83216,-1.534037 l 0,-26.836329 -72.83216,2.301285 z"
           id="path3106"
           inkscape:connector-curvature="0"
           style="fill:#002ec4" />
        <path
           d="m -333.47193,-42.436363 c 0,-4.871448 16.30323,-8.815536 36.41322,-8.815536 20.11571,0 36.41894,3.944088 36.41894,8.815536 0,4.871563 -16.30323,8.815708 -36.41894,8.815708 -20.10999,0 -36.41322,-3.944145 -36.41322,-8.815708 z"
           id="path3110"
           inkscape:connector-curvature="0"
           style="fill:#2da6ff" />
        <path
           d="m -404.39212,-71.573806 0,26.069253 c 13.8017,12.267493 61.33174,11.506027 72.83783,-1.534209 l 0,-26.836158 -72.83783,2.301114 z"
           id="path3118"
           inkscape:connector-curvature="0"
           style="fill:#002ec4" />
        <path
           d="m -404.39212,-73.485657 c 0,-4.865839 16.3089,-8.815708 36.41894,-8.815708 20.11571,0 36.41894,3.949869 36.41894,8.815708 0,4.871391 -16.30323,8.815708 -36.41894,8.815708 -20.10998,0 -36.41894,-3.944317 -36.41894,-8.815708 z"
           id="path3122"
           inkscape:connector-curvature="0"
           style="fill:#2da6ff" />
        <path
           d="m -493.69924,-45.882424 0,26.069196 c 13.79592,12.2673786 61.32596,11.5003025 72.83216,-1.534152 l 0,-26.836329 -72.83216,2.301285 z"
           id="path3130"
           inkscape:connector-curvature="0"
           style="fill:#002ec4" />
        <path
           d="m -493.69924,-47.794332 c 0,-4.865781 16.30323,-8.815708 36.41327,-8.815708 20.11566,0 36.41895,3.949927 36.41895,8.815708 0,4.871448 -16.30329,8.815536 -36.41895,8.815536 -20.10998,0 -36.41327,-3.944088 -36.41327,-8.815536 z"
           id="path3134"
           inkscape:connector-curvature="0"
           style="fill:#2da6ff" />
        <path
           d="m -583.01214,-20.191099 0,26.0690814 c 13.79598,12.2675506 61.32613,11.5004166 72.83221,-1.5339805 l 0,-26.8363289 -72.83221,2.301228 z"
           id="path3142"
           inkscape:connector-curvature="0"
           style="fill:#002ec4" />
        <path
           d="m -583.01214,-22.103122 c 0,-4.871391 16.30328,-8.815536 36.41327,-8.815536 20.11566,0 36.41894,3.944145 36.41894,8.815536 0,4.871563 -16.30328,8.815708 -36.41894,8.815708 -20.10999,0 -36.41327,-3.944145 -36.41327,-8.815708 z"
           id="path3146"
           inkscape:connector-curvature="0"
           style="fill:#2da6ff" />
        <path
           d="m -672.32493,5.4945016 0,26.0748624 c 13.80164,12.267494 61.32602,11.500418 72.83216,-1.534209 l 0,-26.8361573 -72.83216,2.2955039 z"
           id="path3154"
           inkscape:connector-curvature="0"
           style="fill:#002ec4" />
        <path
           d="m -672.32493,3.5882602 c 0,-4.8714484 16.30323,-8.8157079 36.41322,-8.8157079 20.11571,0 36.41894,3.9442595 36.41894,8.8157079 0,4.8657812 -16.30323,8.8156508 -36.41894,8.8156508 -20.10999,0 -36.41322,-3.9498696 -36.41322,-8.8156508 z"
           id="path3158"
           inkscape:connector-curvature="0"
           style="fill:#2da6ff" />
      </g>
      <g
         id="g4560"
         transform="matrix(-1,0,0,1,62.436138,-324.82955)">
        <path
           d="m -680.45729,536.52092 0,128.8057 144.14734,58.275 0,-128.8116 -144.14734,-58.2691 z"
           id="path2950"
           inkscape:connector-curvature="0"
           style="fill:#c00104" />
        <g
           transform="matrix(5.72445,0,0,5.72445,-582.682,-2300.97)"
           id="g2952"
           style="fill:#ff212c">
          <path
             inkscape:connector-curvature="0"
             id="path2954"
             d="m 70.380691,508.70403 0,-20.92901 -62.4140007,18.21701 0,22.501 62.4140007,-19.789 z" />
        </g>
        <path
           d="m -680.45729,538.04935 354.99023,-108.11205 144.90874,61.33746 -355.75163,105.81077 -144.14734,-59.03618 z"
           id="path2958"
           inkscape:connector-curvature="0"
           style="fill:#f0000c;fill-opacity:1" />
        <path
           d="m -563.90758,545.71331 0,26.0692 c 13.79593,12.26738 61.32598,11.50603 72.83218,-1.53415 l 0,-26.83634 -72.83218,2.30129 z"
           id="path2962"
           inkscape:connector-curvature="0"
           style="fill:#c00104" />
        <path
           d="m -473.0605,519.26063 0,26.0692 c 13.80159,12.2731 61.3317,11.50603 72.83212,-1.52843 l 0,-26.83628 -72.83212,2.29551 z"
           id="path2974"
           inkscape:connector-curvature="0"
           style="fill:#c00104" />
        <path
           d="m -384.50904,492.80789 0,26.07487 c 13.80165,12.26749 61.33182,11.50042 72.83212,-1.53404 l 0,-26.83634 -72.83212,2.29551 z"
           id="path2986"
           inkscape:connector-curvature="0"
           style="fill:#c00104" />
        <path
           d="m -299.02006,467.1291 0,26.06908 c 13.80159,12.26749 61.33169,11.50042 72.83211,-1.53404 l 0,-26.83633 -72.83211,2.30129 z"
           id="path2998"
           inkscape:connector-curvature="0"
           style="fill:#c00104" />
        <path
           d="m -299.02006,465.21708 c 0,-4.86567 16.30318,-8.81554 36.41895,-8.81554 20.10998,0 36.41316,3.94987 36.41316,8.81554 0,4.87156 -16.30318,8.8157 -36.41316,8.8157 -20.11577,0 -36.41895,-3.94414 -36.41895,-8.8157 z"
           id="path3002"
           inkscape:connector-curvature="0"
           style="fill:#ff212c" />
        <path
           d="m -369.93452,436.07963 0,26.06926 c 13.80158,12.2731 61.33168,11.50596 72.8321,-1.52843 l 0,-26.84194 -72.8321,2.30111 z"
           id="path3010"
           inkscape:connector-curvature="0"
           style="fill:#c00104" />
        <path
           d="m -369.93452,434.16778 c 0,-4.86584 16.30317,-8.81571 36.41316,-8.81571 20.11577,0 36.41894,3.94987 36.41894,8.81571 0,4.87139 -16.30317,8.81565 -36.41894,8.81565 -20.10999,0 -36.41316,-3.94426 -36.41316,-8.81565 z"
           id="path3014"
           inkscape:connector-curvature="0"
           style="fill:#ff212c" />
        <path
           d="m -459.24743,461.77101 0,26.0692 c 13.80165,12.26738 61.3318,11.50603 72.8321,-1.53415 l 0,-26.83633 -72.8321,2.30128 z"
           id="path3022"
           inkscape:connector-curvature="0"
           style="fill:#c00104" />
        <path
           d="m -459.24743,459.85911 c 0,-4.86579 16.30318,-8.81571 36.41316,-8.81571 20.11577,0 36.41894,3.94987 36.41894,8.81571 0,4.87139 -16.30317,8.81553 -36.41894,8.81553 -20.10998,0 -36.41316,-3.94409 -36.41316,-8.81553 z"
           id="path3026"
           inkscape:connector-curvature="0"
           style="fill:#ff212c" />
        <path
           d="m -548.56027,487.46234 0,26.06908 c 13.8017,12.26749 61.33174,11.50042 72.83216,-1.53404 l 0,-26.83627 -72.83216,2.30123 z"
           id="path3034"
           inkscape:connector-curvature="0"
           style="fill:#c00104" />
        <path
           d="m -548.56027,485.55032 c 0,-4.86567 16.30323,-8.81554 36.41894,-8.81554 20.10999,0 36.41322,3.94987 36.41322,8.81554 0,4.87156 -16.30323,8.8157 -36.41322,8.8157 -20.11571,0 -36.41894,-3.94414 -36.41894,-8.8157 z"
           id="path3038"
           inkscape:connector-curvature="0"
           style="fill:#ff212c" />
        <path
           d="m -637.87306,513.15372 0,26.06908 c 13.80159,12.2675 61.33168,11.50042 72.8321,-1.53421 l 0,-26.83615 -72.8321,2.30128 z"
           id="path3046"
           inkscape:connector-curvature="0"
           style="fill:#c00104" />
        <path
           d="m -637.87306,511.2417 c 0,-4.87145 16.30317,-8.81571 36.41894,-8.81571 20.10999,0 36.41316,3.94426 36.41316,8.81571 0,4.87156 -16.30317,8.81565 -36.41316,8.81565 -20.11577,0 -36.41894,-3.94409 -36.41894,-8.81565 z"
           id="path3050"
           inkscape:connector-curvature="0"
           style="fill:#ff212c" />
        <path
           d="m -473.0605,517.35433 c 0,-4.8714 16.30318,-8.81554 36.41895,-8.81554 20.11,0 36.41317,3.94409 36.41317,8.81554 0,4.86578 -16.30317,8.81571 -36.41317,8.81571 -20.11577,0 -36.41895,-3.94987 -36.41895,-8.81571 z"
           id="path2978"
           inkscape:connector-curvature="0"
           style="fill:#ff212c" />
        <path
           d="m -563.90758,543.8014 c 0,-4.86578 16.30324,-8.81565 36.41323,-8.81565 20.11572,0 36.41895,3.94987 36.41895,8.81565 0,4.87145 -16.30323,8.81554 -36.41895,8.81554 -20.10999,0 -36.41323,-3.94409 -36.41323,-8.81554 z"
           id="path2966"
           inkscape:connector-curvature="0"
           style="fill:#ff212c" />
        <path
           d="m -384.50904,490.90164 c 0,-4.87145 16.30318,-8.81554 36.41895,-8.81554 20.11,0 36.41317,3.94409 36.41317,8.81554 0,4.86579 -16.30317,8.81566 -36.41317,8.81566 -20.11577,0 -36.41895,-3.94987 -36.41895,-8.81566 z"
           id="path2990"
           inkscape:connector-curvature="0"
           style="fill:#ff212c" />
      </g>
      <g
         id="g4494"
         transform="matrix(-1,0,0,1,1898.8666,153.72787)">
        <g
           id="g3164"
           transform="matrix(5.72445,0,0,5.72445,-748.20525,-3343.2187)"
           style="fill:#002ec4">
          <path
             d="m 332.42316,571.55157 0,22.50098 25.18103,10.18006 0,-22.50208 -25.18103,-10.17895 z"
             id="path3166"
             inkscape:connector-curvature="0"
             style="fill:#002ec4" />
        </g>
        <g
           id="g3168"
           transform="matrix(5.72445,0,0,5.72445,-748.20525,-3343.2187)"
           style="fill:#2da6ff">
          <path
             d="m 388.40918,594.42963 0,-21.76001 -30.93903,9.19494 0,22.50098 30.93903,-9.93591 z"
             id="path3170"
             inkscape:connector-curvature="0" />
        </g>
        <g
           id="g3172"
           transform="matrix(5.72445,0,0,5.72445,-748.20525,-3343.2187)"
           style="fill:#008af0;fill-opacity:1">
          <path
             d="m 332.42316,571.81952 31.19201,-9.1919 24.79401,10.042 -30.80499,9.46191 -25.18103,-10.31201 z"
             id="path3174"
             inkscape:connector-curvature="0"
             style="fill:#008af0;fill-opacity:1" />
        </g>
        <g
           id="g3176"
           transform="matrix(5.72445,0,0,5.72445,-748.20525,-3343.2187)"
           style="fill:#002ec4">
          <path
             d="m 352.7832,573.15753 0,4.55408 c 2.40998,2.14294 10.71295,2.01001 12.72296,-0.26807 l 0,-4.68799 -12.72296,0.40198 z"
             id="path3178"
             inkscape:connector-curvature="0" />
        </g>
        <g
           id="g3180"
           transform="matrix(5.72445,0,0,5.72445,-748.20525,-3343.2187)"
           style="fill:#2da6ff">
          <path
             d="m 352.7832,572.82355 c 0,-0.84998 2.84796,-1.54004 6.36096,-1.54004 3.51404,0 6.362,0.69006 6.362,1.54004 0,0.85107 -2.84796,1.54004 -6.362,1.54004 -3.513,0 -6.36096,-0.68897 -6.36096,-1.54004 z"
             id="path3182"
             inkscape:connector-curvature="0" />
        </g>
        <g
           id="g3188"
           transform="matrix(5.72445,0,0,5.72445,-748.20525,-3343.2187)"
           style="fill:#002ec4">
          <path
             d="m 368.6532,568.53656 0,4.55395 c 2.41095,2.14405 10.71399,2.01001 12.72299,-0.26696 l 0,-4.68799 -12.72299,0.401 z"
             id="path3190"
             inkscape:connector-curvature="0" />
        </g>
        <g
           id="g3192"
           transform="matrix(5.72445,0,0,5.72445,-748.20525,-3343.2187)"
           style="fill:#2da6ff">
          <path
             d="m 368.6532,568.20355 c 0,-0.85095 2.84796,-1.54004 6.362,-1.54004 3.513,0 6.36099,0.68909 6.36099,1.54004 0,0.84998 -2.84799,1.54004 -6.36099,1.54004 -3.51404,0 -6.362,-0.69006 -6.362,-1.54004 z"
             id="path3194"
             inkscape:connector-curvature="0" />
        </g>
        <g
           id="g3200"
           transform="matrix(5.72445,0,0,5.72445,-748.20525,-3343.2187)"
           style="fill:#002ec4">
          <path
             d="m 355.46417,562.98163 0,4.55395 c 2.41101,2.14295 10.71399,2.00904 12.72302,-0.26806 l 0,-4.68799 -12.72302,0.4021 z"
             id="path3202"
             inkscape:connector-curvature="0" />
        </g>
        <g
           id="g3204"
           transform="matrix(5.72445,0,0,5.72445,-748.20525,-3343.2187)"
           style="fill:#2da6ff">
          <path
             d="m 355.46417,562.64752 c 0,-0.84997 2.84802,-1.53991 6.362,-1.53991 3.513,0 6.36103,0.68994 6.36103,1.53991 0,0.85108 -2.84803,1.54004 -6.36103,1.54004 -3.51397,0 -6.362,-0.68896 -6.362,-1.54004 z"
             id="path3206"
             inkscape:connector-curvature="0" />
        </g>
        <g
           id="g3212"
           transform="matrix(5.72445,0,0,5.72445,-748.20525,-3343.2187)"
           style="fill:#002ec4">
          <path
             d="m 339.86218,567.46954 0,4.55408 c 2.41101,2.14294 10.71399,2.00891 12.72296,-0.26807 l 0,-4.68798 -12.72296,0.40197 z"
             id="path3214"
             inkscape:connector-curvature="0" />
        </g>
        <g
           id="g3216"
           transform="matrix(5.72445,0,0,5.72445,-748.20525,-3343.2187)"
           style="fill:#2da6ff">
          <path
             d="m 339.86218,567.13556 c 0,-0.85095 2.84796,-1.54004 6.362,-1.54004 3.513,0 6.36096,0.68909 6.36096,1.54004 0,0.85095 -2.84796,1.54004 -6.36096,1.54004 -3.51404,0 -6.362,-0.68909 -6.362,-1.54004 z"
             id="path3218"
             inkscape:connector-curvature="0" />
        </g>
      </g>
    </g>
  </g>
</svg>
